<?xml version="1.0" encoding="utf-8"?>
<!-- Generator: Adobe Illustrator 24.1.0, SVG Export Plug-In . SVG Version: 6.00 Build 0)  -->
<svg version="1.1" id="Layer_1" xmlns="http://www.w3.org/2000/svg" xmlns:xlink="http://www.w3.org/1999/xlink" x="0px" y="0px"
	 viewBox="0 0 595.28 841.89" style="enable-background:new 0 0 595.28 841.89;" xml:space="preserve">
<style type="text/css">
	.st0{opacity:0.8;fill:#7065AD;}
	.st1{opacity:0.8;fill:#4F53A4;}
	.st2{opacity:0.8;fill:#40307A;}
	.st3{opacity:0.8;fill:#4F54A4;}
	.st4{opacity:0.8;fill:#47459C;}
	.st5{fill:none;stroke:#000000;stroke-width:30;stroke-miterlimit:10;}
	.st6{fill:none;}
	.st7{font-family:'ProximaNova-Regular';}
	.st8{font-size:100px;}
</style>
<path class="st0" d="M295.57,324.74h-14.43c-3.62,0-6.55-2.93-6.55-6.55l0-84.94c0-3.62,2.93-6.55,6.55-6.55h14.43
	c3.62,0,6.55,2.93,6.55,6.55l0,84.94C302.12,321.81,299.19,324.74,295.57,324.74z"/>
<path class="st1" d="M329.19,312.83h-14.43c-3.62,0-6.55-2.93-6.55-6.55l0-59.21c0-3.62,2.93-6.55,6.55-6.55h14.43
	c3.62,0,6.55,2.93,6.55,6.55l0,59.21C335.74,309.9,332.81,312.83,329.19,312.83z"/>
<path class="st2" d="M361.81,325.74h-14.43c-3.62,0-6.55-2.93-6.55-6.55l0-84.94c0-3.62,2.93-6.55,6.55-6.55h14.43
	c3.62,0,6.55,2.93,6.55,6.55l0,84.94C368.36,322.81,365.43,325.74,361.81,325.74z"/>
<path class="st3" d="M393.73,341.4H379.3c-3.62,0-6.55-2.93-6.55-6.55l0-120.32c0-3.62,2.93-6.55,6.55-6.55h14.43
	c3.62,0,6.55,2.93,6.55,6.55l0,120.32C400.28,338.47,397.35,341.4,393.73,341.4z"/>
<path class="st4" d="M425.71,323.74h-14.72c-3.54,0-6.4-2.87-6.4-6.4v-85.23c0-3.54,2.87-6.4,6.4-6.4h14.72c3.54,0,6.4,2.87,6.4,6.4
	v85.23C432.11,320.88,429.24,323.74,425.71,323.74z"/>
<path class="st0" d="M458.5,312.02h-14.43c-3.62,0-6.55-2.93-6.55-6.55l0-59.21c0-3.62,2.93-6.55,6.55-6.55l14.43,0
	c3.62,0,6.55,2.93,6.55,6.55l0,59.21C465.05,309.09,462.12,312.02,458.5,312.02z"/>
<path class="st1" d="M491.12,326.09h-14.43c-3.62,0-6.55-2.93-6.55-6.55l0-80.45c0-3.62,2.93-6.55,6.55-6.55h14.43
	c3.62,0,6.55,2.93,6.55,6.55l0,80.45C497.67,323.16,494.74,326.09,491.12,326.09z"/>
<circle class="st5" cx="207.64" cy="279.7" r="48.16"/>
<path d="M167.69,341.4h-15.51c-4.23,0-7.66-3.43-7.66-7.66V167.7c0-4.23,3.43-7.66,7.66-7.66h15.51c4.23,0,7.66,3.43,7.66,7.66
	v166.04C175.35,337.97,171.92,341.4,167.69,341.4z"/>
<path d="M228.33,276.02l-27.89-16.1c-2.04-1.18-4.6,0.29-4.6,2.65v32.2c0,2.36,2.55,3.83,4.6,2.65l27.89-16.1
	C230.37,280.15,230.37,277.2,228.33,276.02z"/>
<rect x="269.36" y="244.74" class="st6" width="236.81" height="79.87"/>
<text transform="matrix(1 0 0 1 269.3584 311.4409)" class="st7 st8">eats</text>
</svg>
